<svg width="247" height="246" viewBox="0 0 247 246" fill="none" xmlns="http://www.w3.org/2000/svg">
<path d="M133.225 0C153.553 0.616004 157.61 1.28328 157.098 1.54004L211.004 16.1719C243.655 23.5647 248.225 37.221 246.428 43.125V156.327C246.428 183.434 234.106 190.725 227.945 190.981L106.271 241.807C95.1823 247.967 84.196 244.374 80.0889 241.807C57.5005 232.053 11.0926 211.929 6.16113 209.464C1.23274 207 8.04196e-05 197.656 0 193.292V58.5264C0.000103284 49.2855 8.728 46.9756 13.0918 46.9756H38.5039C47.1287 47.5916 48.2584 44.6652 47.7451 43.125L46.2051 12.3213C46.8211 2.46474 53.1353 0.000240059 56.2158 0H133.225ZM138.616 34.6553C136.819 34.3986 133.533 34.9629 134.766 39.2754V70.0781C134.509 73.4152 132.455 80.2431 126.295 80.8594H90.8701C89.5865 80.8602 87.0205 81.9397 87.0205 86.251V211.005C86.764 214.599 89.3308 220.708 101.651 216.396C113.973 212.083 183.795 184.308 217.165 170.96C219.989 170.96 225.481 166.646 224.865 149.397V42.3555C225.379 40.0452 224.557 35.2715 217.165 34.6553H138.616Z" fill="url(#paint0_linear_20_281)"/>
<path d="M147.856 145.598V114.778C147.856 112.793 149.707 111.326 151.64 111.779L189.572 120.67C192.289 121.306 192.826 124.939 190.411 126.335L152.479 148.265C150.425 149.452 147.856 147.97 147.856 145.598Z" fill="url(#paint1_linear_20_281)"/>
<defs>
<linearGradient id="paint0_linear_20_281" x1="167.879" y1="17.712" x2="58.5269" y2="147.857" gradientUnits="userSpaceOnUse">
<stop stop-color="#FFC300"/>
<stop offset="1" stop-color="#FF007B"/>
</linearGradient>
<linearGradient id="paint1_linear_20_281" x1="181.387" y1="113.785" x2="164.464" y2="138.417" gradientUnits="userSpaceOnUse">
<stop stop-color="#FFC300"/>
<stop offset="1" stop-color="#FF007B"/>
</linearGradient>
</defs>
</svg>
